<svg xmlns="http://www.w3.org/2000/svg" viewBox="0 0 24 24" fill="#fff">
  <path d="M12 .297c-6.63 0-12 5.373-12 12 0 5.303 3.438 9.8 8.205 11.385.6.113.82-.258.82-.577v-2.24c-3.338.724-4.033-1.415-4.033-1.415-.546-1.387-1.333-1.757-1.333-1.757-1.089-.744.083-.729.083-.729 1.205.084 1.838 1.236 1.838 1.236 1.07 1.835 2.809 1.305 3.495.997.108-.776.418-1.305.76-1.605-2.665-.305-5.466-1.336-5.466-5.93 0-1.31.468-2.381 1.235-3.221-.123-.303-.535-1.527.117-3.176 0 0 1.008-.322 3.3 1.23a11.45 11.45 0 0 1 3-.405c1.02.005 2.046.138 3 .405 2.29-1.552 3.295-1.23 3.295-1.23.653 1.649.241 2.873.118 3.176.77.84 1.234 1.911 1.234 3.221 0 4.607-2.807 5.625-5.479 5.92.43.372.823 1.103.823 2.222v3.293c0 .322.216.694.824.576C20.565 22.092 24 17.592 24 12.297c0-6.627-5.373-12-12-12"/>
</svg>
