<svg xmlns="http://www.w3.org/2000/svg" viewBox="0 0 24 24" fill="#fff">
  <path d="M22.23 0H1.77C.79 0 0 .77 0 1.73v20.54C0 23.2.79 24 1.77 24h20.46c.98 0 1.77-.79 1.77-1.73V1.73C24 .77 23.21 0 22.23 0zM7.12 20.452H3.56V8.994h3.56v11.458zm-1.78-13.09c-1.14 0-2.06-.93-2.06-2.078 0-1.148.92-2.076 2.06-2.076 1.14 0 2.06.928 2.06 2.076 0 1.149-.92 2.078-2.06 2.078zM20.452 20.452h-3.55v-5.72c0-1.364-.03-3.116-1.9-3.116-1.9 0-2.19 1.482-2.19 3.01v5.825h-3.55V8.994h3.41v1.566h.05c.48-.91 1.65-1.866 3.4-1.866 3.64 0 4.31 2.398 4.31 5.516v6.242z"/>
</svg>
